# xmcd CD database file
#
# Track frame offsets:
#	150
#	12465
#	31942
#	49922
#	70435
#	93322
#	123525
#
# Disc length: 1949 seconds
#
# Revision: 0
# Processed by: cddbd v1.4PL0 Copyright (c) Steve Scherf et al.
# Submitted via: CDex 1.50beta10
#
DISCID=5d079b07
DTITLE=Jimmy McGriff - Let's stay together
DYEAR=1972
DGENRE=Jazz
TTITLE0=Let's stay together
TTITLE1=Tiki
TTITLE2=Theme from Shaft
TTITLE3=What's going on
TTITLE4=Old grand dad
TTITLE5=Georgia on my mind
TTITLE6=April in Paris
EXTD=YEAR: 1972
EXTT0=
EXTT1=
EXTT2=
EXTT3=
EXTT4=
EXTT5=
EXTT6=
PLAYORDER=
